<?xml version="1.0" encoding="UTF-8"?>
<!-- 
  AXYN Brand Favicon
  - Square SVG with rounded corners (100px radius)
  - Brand name "AXYN" rendered as vector paths for consistent display
  - Dark background (#0e0d0e) with light text (#f5f3ee)
  - Designed for browser tab display with modern rounded appearance
-->
<svg width="512" height="512" viewBox="0 0 512 512" xmlns="http://www.w3.org/2000/svg">
  <!-- Rounded rectangle background - 100px corner radius for modern look -->
  <rect width="512" height="512" rx="100" fill="#0e0d0e"/>
  
  <!-- AXYN brand name as vector paths - centered with optimal sizing -->
  <!-- Using paths instead of text ensures consistent display across browsers -->
  <g fill="#f5f3ee" transform="translate(76, 310) scale(1.1)">
    <!-- Letter A with triangle cutout -->
    <path d="M0,0 L30,-80 L60,0 L45,0 L37.5,-20 L22.5,-20 L15,0 Z M30,-60 L35,-40 L25,-40 Z"/>
    
    <!-- Letter X with crossed diagonals -->
    <path d="M80,0 L100,0 L120,-30 L140,0 L160,0 L130,-40 L160,-80 L140,-80 L120,-50 L100,-80 L80,-80 L110,-40 Z" />
    
    <!-- Letter Y with branching arms -->
    <path d="M180,0 L200,0 L200,-30 L230,-80 L210,-80 L190,-45 L170,-80 L150,-80 L180,-30 Z" />
    
    <!-- Letter N with diagonal stroke -->
    <path d="M250,0 L270,0 L270,-80 L250,-80 L250,-30 L290,-80 L310,-80 L310,0 L290,0 L290,-50 L250,0 Z" />
  </g>
</svg> 